<?xml version="1.0" encoding="UTF-8" standalone="no"?>
<svg id="box" xmlns="http://www.w3.org/2000/svg" viewBox="0 0 32 32">
  <defs>
    <style>
      .cls-1{fill:#fff;}
      .cls-2{fill:#272727;fill-rule:evenodd;}
    </style>
  </defs>
  <title>icon sheet</title>
  <rect class="cls-1" width="32" height="32"/>
  <g id="Developer">
    <path class="cls-2" d="M29.05,6.27l-5,4.93h0a2.37,2.37,0,0,1-3.36-3.33h0l5-4.93A8,8,0,0,0,14,10a7.86,7.86,0,0,0,.64,3.11L2.93,24.63a3.13,3.13,0,0,0,0,4.45,3.19,3.19,0,0,0,4.49,0l11.8-11.69A8,8,0,0,0,30,10,7.81,7.81,0,0,0,29.05,6.27ZM5.26,28.5A1.75,1.75,0,1,1,7,26.75,1.75,1.75,0,0,1,5.26,28.5Z"/>
  </g>
</svg>