<?xml version="1.0" encoding="utf-8"?>
<!-- Generator: Adobe Illustrator 19.2.1, SVG Export Plug-In . SVG Version: 6.00 Build 0)  -->
<svg version="1.1" id="Layer_1" xmlns="http://www.w3.org/2000/svg" xmlns:xlink="http://www.w3.org/1999/xlink" x="0px" y="0px"
	 viewBox="0 0 32 32" style="enable-background:new 0 0 32 32;" xml:space="preserve">
<style type="text/css">
	.st0{fill:#231F20;}
</style>
<path id="Menu" class="st0" d="M4.6,9.2h22.8c1.4-0.1,2.6-1.3,2.5-2.8c-0.1-1.3-1.1-2.4-2.5-2.5H4.6C3.2,3.9,1.9,5,1.8,6.5
	s1,2.7,2.5,2.8C4.4,9.3,4.5,9.3,4.6,9.2z M4.6,18.2h22.8c1.4-0.1,2.6-1.3,2.5-2.8c-0.1-1.3-1.1-2.4-2.5-2.5H4.6
	C3.2,13,2,14.2,2.1,15.7C2.2,17.1,3.3,18.2,4.6,18.2z M27.4,22H4.6c-1.4-0.1-2.7,1-2.8,2.5s1,2.7,2.5,2.8c0.1,0,0.2,0,0.3,0h22.8
	c1.4-0.1,2.6-1.3,2.5-2.8C29.8,23.1,28.7,22.1,27.4,22z"/>
</svg>
